<svg width="100" height="100" viewBox="0 0 100 100" fill="none" xmlns="http://www.w3.org/2000/svg">
<g filter="url(#filter0_d)">
<path d="M42.9998 47.9004C42.9998 47.9004 33.6998 49.8004 33.9998 59.1004V69.0004L65.9998 68.9004V59.1004C65.9998 49.4004 56.9998 48.0004 56.9998 48.0004C54.4998 50.7004 49.9998 50.5004 49.9998 50.5004C49.9998 50.5004 45.4998 50.6004 42.9998 47.9004Z" stroke="black" stroke-width="2" stroke-miterlimit="10"/>
<path d="M50 44C54.4183 44 58 40.4183 58 36C58 31.5817 54.4183 28 50 28C45.5817 28 42 31.5817 42 36C42 40.4183 45.5817 44 50 44Z" stroke="black" stroke-width="2" stroke-miterlimit="10"/>
<path d="M49.9 54L52 62L50 65L48 62L49.9 54Z" stroke="#D33234" stroke-width="2" stroke-miterlimit="10" stroke-linejoin="round"/>
</g>
<defs>
<filter id="filter0_d" x="-4" y="0" width="108" height="108" filterUnits="userSpaceOnUse" color-interpolation-filters="sRGB">
<feFlood flood-opacity="0" result="BackgroundImageFix"/>
<feColorMatrix in="SourceAlpha" type="matrix" values="0 0 0 0 0 0 0 0 0 0 0 0 0 0 0 0 0 0 127 0"/>
<feOffset dy="4"/>
<feGaussianBlur stdDeviation="2"/>
<feColorMatrix type="matrix" values="0 0 0 0 0 0 0 0 0 0 0 0 0 0 0 0 0 0 0.25 0"/>
<feBlend mode="normal" in2="BackgroundImageFix" result="effect1_dropShadow"/>
<feBlend mode="normal" in="SourceGraphic" in2="effect1_dropShadow" result="shape"/>
</filter>
</defs>
</svg>
