<svg width="100" height="100" viewBox="0 0 100 100" fill="none" xmlns="http://www.w3.org/2000/svg">
<path d="M50 75L25 68V39L50 45L75 39V68L50 75Z" stroke="black" stroke-width="2" stroke-miterlimit="10" stroke-linejoin="round"/>
<path d="M35.6 55.1999L37.3 55.5999C38.1 55.7999 38.7 55.6999 39.1 55.3999C39.5 55.0999 39.7 54.5999 39.7 53.8999C39.7 53.1999 39.5 52.6999 39.1 52.1999C38.7 51.6999 38.2 51.3999 37.5 51.2999C36.9 51.1999 36.3 51.1999 35.9 51.3999C35.5 51.5999 35.3 51.9999 35.3 52.5999L32 51.8999C32 51.0999 32.2 50.2999 32.7 49.7999C33.2 49.1999 33.8 48.8999 34.6 48.6999C35.4 48.4999 36.4 48.4999 37.4 48.7999C39.3 49.1999 40.7 49.9999 41.7 51.1999C41.9 51.3999 42.1 51.6999 42.2 51.9999C43.2 53.9999 43.2 55.4999 42.3 56.5999C41.8 57.0999 41.2 57.4999 40.5 57.5999C41.4 58.0999 42.1 58.7999 42.6 59.4999C43.1 60.2999 43.3 61.0999 43.3 61.9999C43.3 63.3999 42.8 64.4999 41.7 65.0999C40.6 65.6999 39.2 65.7999 37.5 65.3999C35.9 64.9999 34.5 64.2999 33.5 63.1999C32.5 62.0999 31.9 60.8999 31.9 59.3999L35.2 60.0999C35.2 60.6999 35.4 61.2999 35.9 61.7999C36.4 62.2999 36.9 62.5999 37.6 62.7999C38.4 62.9999 39 62.8999 39.4 62.5999C39.8 62.2999 40.1 61.7999 40.1 61.0999C40.1 59.4999 39.2 58.4999 37.4 57.9999L35.7 57.5999V55.1999H35.6Z" fill="#D33234"/>
<path d="M25 39L50 33L75 38.9" stroke="black" stroke-width="2" stroke-miterlimit="10" stroke-linejoin="round"/>
<path d="M50 45V74" stroke="black" stroke-width="2" stroke-miterlimit="10"/>
<path d="M57.5 65.5V49.6L61.4 48.6C62.7 48.3 63.9 48.4 64.9 48.8C65.9 49.2 66.7 50 67.3 51C67.9 52.1 68.2 53.3 68.2 54.8V55.5C68.2 57 67.9 58.4 67.4 59.7C66.8 61 66 62.1 65 62.9C64 63.8 63.1 64.3 61.5 64.6L57.5 65.5ZM60.4 51.8V62.3L61.8 62C63.3 61.6 63.8 61.1 64.4 60.1C65 59.2 65.5 57.8 65.6 56.2V55C65.6 53.4 65.1 52.8 64.5 52.1C63.9 51.4 63 51.2 61.9 51.4L60.4 51.8Z" fill="#D33234"/>
</svg>
