<svg width="100" height="100" viewBox="0 0 100 100" fill="none" xmlns="http://www.w3.org/2000/svg">
<path d="M71.5 67C74.5376 67 77 64.5376 77 61.5C77 58.4624 74.5376 56 71.5 56C68.4624 56 66 58.4624 66 61.5C66 64.5376 68.4624 67 71.5 67Z" stroke="#292E3C" stroke-width="2" stroke-miterlimit="10" stroke-linecap="round" stroke-linejoin="round"/>
<path d="M27.5 68C30.5376 68 33 65.5376 33 62.5C33 59.4624 30.5376 57 27.5 57C24.4624 57 22 59.4624 22 62.5C22 65.5376 24.4624 68 27.5 68Z" stroke="#292E3C" stroke-width="2" stroke-miterlimit="10" stroke-linecap="round" stroke-linejoin="round"/>
<path d="M21.8998 62.6L18.8998 60.2L18.7998 57.7L19.9998 55.3V50.5L26.9998 40.5V38H53.7998L66.3998 48.9L79.9998 50L82.9998 57V61L79.9998 63H76.9998" stroke="#292E3C" stroke-width="2" stroke-miterlimit="10" stroke-linejoin="round"/>
<path d="M44 43H52L60 50H44V43Z" stroke="#292E3C" stroke-width="2" stroke-miterlimit="10" stroke-linejoin="round"/>
<path d="M33.2998 63H65.9998" stroke="#292E3C" stroke-width="2" stroke-miterlimit="10" stroke-linejoin="round"/>
<path d="M37 50H17" stroke="#D33234" stroke-width="2" stroke-miterlimit="10" stroke-linecap="square" stroke-linejoin="round"/>
<path d="M33 46H13" stroke="#D33234" stroke-width="2" stroke-miterlimit="10" stroke-linecap="square" stroke-linejoin="round"/>
</svg>
