<svg xmlns="http://www.w3.org/2000/svg">
	<symbol viewBox="0 0 32 32" id="social-fb">
		<path d="M31.5 16C31.5 24.5604 24.5604 31.5 16 31.5C7.43959 31.5 0.5 24.5604 0.5 16C0.5 7.43959 7.43959 0.5 16 0.5C24.5604 0.5 31.5 7.43959 31.5 16Z" stroke="#999BA2" fill="none" stroke-miterlimit="10"/>
		<path d="M16.9 24.9V16.3H20L20.5 12.7H17V10.7C17 9.8 17.3 9.2 18.6 9.2H20.6V6.1C20.3 6.1 19.2 6 17.9 6C15.2 6 13.4 7.6 13.4 10.5V12.7H10.5V16.3H13.4V24.9H16.9Z" fill="#999BA2"/>
	</symbol>
	<symbol viewBox="0 0 32 32" id="social-vk">
		<path d="M16 1C24.3 1 31 7.7 31 16C31 24.3 24.3 31 16 31C7.7 31 1 24.3 1 16C1 7.7 7.7 1 16 1ZM16 0C7.2 0 0 7.2 0 16C0 24.8 7.2 32 16 32C24.8 32 32 24.8 32 16C32 7.2 24.8 0 16 0Z" fill="#999BA2"/>
		<path fill-rule="evenodd" clip-rule="evenodd" d="M25.6606 12.6723C25.7546 12.2521 25.6606 12 25.0021 12H22.8385C22.2741 12 21.9919 12.2521 21.8978 12.5042C21.8978 12.5042 20.7689 14.7731 19.1698 16.2857C18.6994 16.7059 18.4172 16.8739 18.135 16.8739C18.0409 16.8739 17.7587 16.7059 17.7587 16.3697V12.6723C17.7587 12.1681 17.5706 12 17.1002 12H13.6196C13.2434 12 13.0552 12.2521 13.0552 12.4202C13.0552 12.8403 13.8078 13.0084 13.9019 14.2689V17.042C13.9019 17.6303 13.8078 17.7143 13.5256 17.7143C12.773 17.7143 10.9857 15.3613 9.85686 12.7563C9.66872 12.2521 9.48058 12 8.91616 12H6.75256C6.09407 12 6 12.2521 6 12.5042C6 13.0084 6.75256 15.4454 9.48058 18.6387C11.2679 20.8235 13.8078 22 16.1595 22C17.5706 22 17.7587 21.7479 17.7587 21.2437V19.563C17.7587 19.0588 17.8528 18.8908 18.3231 18.8908C18.6053 18.8908 19.1698 19.0588 20.4867 20.0672C21.9919 21.3277 22.18 21.916 23.0266 21.916H25.1902C25.8487 21.916 26.1309 21.6639 25.9428 21.1597C25.7546 20.6555 25.0021 19.8992 24.0614 18.9748C23.591 18.4706 22.7444 17.8824 22.5563 17.6303C22.2741 17.2941 22.3681 17.1261 22.5563 16.7899C22.6503 16.958 25.3784 13.7647 25.6606 12.6723Z" fill="#999BA2"/>
	</symbol>
	<symbol viewBox="0 0 32 32" id="social-inst">
		<path d="M16 1C24.3 1 31 7.7 31 16C31 24.3 24.3 31 16 31C7.7 31 1 24.3 1 16C1 7.7 7.7 1 16 1ZM16 0C7.2 0 0 7.2 0 16C0 24.8 7.2 32 16 32C24.8 32 32 24.8 32 16C32 7.2 24.8 0 16 0Z" fill="#999BA2"/>
		<path d="M16.0001 9.5001C18.1001 9.5001 18.4001 9.5001 19.2001 9.5001C20.0001 9.5001 20.4001 9.7001 20.7001 9.8001C21.1001 9.9001 21.3001 10.1001 21.6001 10.4001C21.9001 10.7001 22.0001 10.9001 22.2001 11.3001C22.3001 11.6001 22.4001 12.0001 22.5001 12.8001C22.5001 13.6001 22.5001 13.9001 22.5001 16.0001C22.5001 18.1001 22.5001 18.4001 22.5001 19.2001C22.5001 20.0001 22.3001 20.4001 22.2001 20.7001C22.1001 21.1001 21.9001 21.3001 21.6001 21.6001C21.3001 21.9001 21.1001 22.0001 20.7001 22.2001C20.4001 22.3001 20.0001 22.4001 19.2001 22.5001C18.4001 22.5001 18.1001 22.5001 16.0001 22.5001C13.9001 22.5001 13.6001 22.5001 12.8001 22.5001C12.0001 22.5001 11.6001 22.3001 11.3001 22.2001C10.9001 22.1001 10.7001 21.9001 10.4001 21.6001C10.1001 21.3001 10.0001 21.1001 9.8001 20.7001C9.7001 20.4001 9.6001 20.0001 9.5001 19.2001C9.5001 18.4001 9.5001 18.1001 9.5001 16.0001C9.5001 13.9001 9.5001 13.6001 9.5001 12.8001C9.5001 12.0001 9.7001 11.6001 9.8001 11.3001C9.9001 10.9001 10.1001 10.7001 10.4001 10.4001C10.7001 10.1001 10.9001 10.0001 11.3001 9.8001C11.6001 9.7001 12.0001 9.6001 12.8001 9.5001C13.6001 9.6001 13.9001 9.5001 16.0001 9.5001ZM16.0001 8.1001C13.9001 8.1001 13.6001 8.1001 12.8001 8.1001C12.0001 8.1001 11.4001 8.3001 10.9001 8.5001C10.4001 8.7001 9.9001 9.0001 9.5001 9.4001C9.0001 9.9001 8.7001 10.3001 8.5001 10.8001C8.3001 11.3001 8.2001 11.9001 8.1001 12.7001C8.1001 13.5001 8.1001 13.8001 8.1001 15.9001C8.1001 18.0001 8.1001 18.3001 8.1001 19.1001C8.1001 19.9001 8.3001 20.5001 8.5001 21.0001C8.7001 21.5001 9.0001 22.0001 9.4001 22.4001C9.8001 22.8001 10.3001 23.1001 10.8001 23.3001C11.3001 23.5001 11.9001 23.6001 12.7001 23.7001C13.5001 23.7001 13.8001 23.7001 15.9001 23.7001C18.0001 23.7001 18.3001 23.7001 19.1001 23.7001C19.9001 23.7001 20.5001 23.5001 21.0001 23.3001C21.5001 23.1001 22.0001 22.8001 22.4001 22.4001C22.8001 22.0001 23.1001 21.5001 23.3001 21.0001C23.5001 20.5001 23.6001 19.9001 23.7001 19.1001C23.7001 18.3001 23.7001 18.0001 23.7001 15.9001C23.7001 13.8001 23.7001 13.5001 23.7001 12.7001C23.7001 11.9001 23.5001 11.3001 23.3001 10.8001C23.1001 10.3001 22.8001 9.8001 22.4001 9.4001C22.0001 9.0001 21.5001 8.7001 21.0001 8.5001C20.5001 8.3001 19.9001 8.2001 19.1001 8.1001C18.4001 8.1001 18.1001 8.1001 16.0001 8.1001Z" fill="#999BA2"/>
		<path d="M16 12C13.8 12 12 13.8 12 16C12 18.2 13.8 20 16 20C18.2 20 20 18.2 20 16C20 13.8 18.2 12 16 12ZM16 18.6C14.5 18.6 13.4 17.4 13.4 16C13.4 14.5 14.6 13.4 16 13.4C17.5 13.4 18.6 14.6 18.6 16C18.6 17.5 17.5 18.6 16 18.6Z" fill="#999BA2"/>
		<path d="M21.1999 11.7999C21.1999 12.2999 20.7999 12.6999 20.2999 12.6999C19.7999 12.6999 19.3999 12.2999 19.3999 11.7999C19.3999 11.2999 19.7999 10.8999 20.2999 10.8999C20.6999 10.8999 21.1999 11.2999 21.1999 11.7999Z" fill="#999BA2"/>
	</symbol>
	<symbol viewBox="0 0 14 13" id="rating-star">
		<path d="M7 0L8.5716 4.83688H13.6574L9.5429 7.82624L11.1145 12.6631L7 9.67376L2.8855 12.6631L4.4571 7.82624L0.342604 4.83688H5.4284L7 0Z"/>
	</symbol>
	<symbol viewBox="0 0 11 7" id="small-arrow-down">
		<path d="M9.5 1.5L5.5 5.5L1.5 1.5" stroke="#545863" fill="none" stroke-width="2"/>
	</symbol>
	<symbol viewBox="0 0 10 6" id="city-choose-arrow">
		<path d="M9 0.999994L5 4.99999L1 0.999994" fill="none" stroke="#E5E5E6"/>
	</symbol>
	<symbol viewBox="0 0 24 25" fill="none" id="search-submit">
		<path d="M9 17.8649C13.4183 17.8649 17 14.2269 17 9.73911C17 5.25135 13.4183 1.61331 9 1.61331C4.58172 1.61331 1 5.25135 1 9.73911C1 14.2269 4.58172 17.8649 9 17.8649Z" stroke-width="2" stroke-miterlimit="10"/>
		<path d="M14.9 15.935L22.9 23.9593" stroke-width="2" stroke-miterlimit="10"/>
	</symbol>
	<symbol viewBox="0 0 20 18" fill="none" id="basket-delay">
		<path fill-rule="evenodd" clip-rule="evenodd" d="M9.61822 0L12.97 5.39638L19.2 6.88129L15.0467 11.6982L15.5567 18L9.61822 15.5734L3.6797 18L4.18975 11.6982L0 6.88129L6.22998 5.39638L9.61822 0ZM9.61822 2.42656L7.06793 6.51911L2.33169 7.60563L5.4649 11.2636L5.10057 16.0443L9.58178 14.2334L14.063 16.0443L13.6987 11.2636L16.8683 7.60563L12.1321 6.4829L9.61822 2.42656Z" fill="#545863"/>
	</symbol>
	<symbol viewBox="0 0 14 16" fill="none" id="basket-compare">
		<rect y="8" width="1.5" height="8" fill="#545863"/>
		<rect x="4" width="1.5" height="16" fill="#545863"/>
		<rect x="8" y="4" width="1.5" height="12" fill="#545863"/>
		<rect x="12" y="11" width="1.5" height="5" fill="#545863"/>
	</symbol>
	<symbol viewBox="0 0 18 19" fill="none" id="user">
		<path d="M12.15 11.9036C13.875 10.8371 15 8.9326 15 6.7234C15 3.37149 12.3 0.629032 9 0.629032C5.70002 0.629032 2.99999 3.37149 2.99999 6.7234C2.99999 8.9326 4.12497 10.8371 5.84996 11.9036C2.84998 13.0463 0.599977 15.7126 0 18.9121H1.50001C2.25 15.4079 5.32503 12.8177 9 12.8177C12.675 12.8177 15.75 15.4078 16.5 18.9121H18C17.4 15.6364 15.15 12.9701 12.15 11.9036ZM4.5 6.7234C4.5 4.2095 6.52502 2.15263 9 2.15263C11.475 2.15263 13.5 4.2095 13.5 6.7234C13.5 9.2373 11.475 11.2942 9 11.2942C6.52502 11.2942 4.5 9.2373 4.5 6.7234Z" fill="#545863"/>
	</symbol>
	<symbol  viewBox="0 0 21 17" fill="none" id="basket">
		<g clip-path="url(#clip0)">
			<path d="M0 0.597191H4.13622L8.27244 9.79391H17.0268L19.5567 3.1452H5.26063" stroke="#545863" stroke-width="1.2" stroke-miterlimit="10"/>
			<path d="M9.67794 16.4028C10.676 16.4028 11.485 15.6007 11.485 14.6112C11.485 13.6218 10.676 12.8197 9.67794 12.8197C8.67991 12.8197 7.87085 13.6218 7.87085 14.6112C7.87085 15.6007 8.67991 16.4028 9.67794 16.4028Z" stroke="#545863" stroke-width="1.2" stroke-miterlimit="10"/>
			<path d="M16.1031 16.4028C17.1011 16.4028 17.9102 15.6007 17.9102 14.6112C17.9102 13.6218 17.1011 12.8197 16.1031 12.8197C15.1051 12.8197 14.296 13.6218 14.296 14.6112C14.296 15.6007 15.1051 16.4028 16.1031 16.4028Z" stroke="#545863" stroke-width="1.2" stroke-miterlimit="10"/>
		</g>
		<defs>
			<clipPath id="clip0">
				<rect width="20.4" height="17" fill="white"/>
			</clipPath>
		</defs>
	</symbol>
</svg>
